<svg xmlns:xlink="http://www.w3.org/1999/xlink" version="1.1" style="font-family:'lucida grande', 'lucida sans unicode', arial, helvetica, sans-serif;font-size:12px;" xmlns="http://www.w3.org/2000/svg" width="1920" height="787"><desc>Created with Highcharts 4.2.5</desc><defs><clipPath id="highcharts-5"><rect x="0" y="0" width="1808" height="686"></rect></clipPath></defs><rect x="0" y="0" width="1920" height="787" fill="#FFFFFF" class=" highcharts-background"></rect><g class="highcharts-grid"></g><g class="highcharts-grid"><path fill="none" d="M 87 747.5 L 1895 747.5" stroke="#D8D8D8" stroke-width="1" opacity="1"></path><path fill="none" d="M 87 685.5 L 1895 685.5" stroke="#D8D8D8" stroke-width="1" opacity="1"></path><path fill="none" d="M 87 622.5 L 1895 622.5" stroke="#D8D8D8" stroke-width="1" opacity="1"></path><path fill="none" d="M 87 560.5 L 1895 560.5" stroke="#D8D8D8" stroke-width="1" opacity="1"></path><path fill="none" d="M 87 498.5 L 1895 498.5" stroke="#D8D8D8" stroke-width="1" opacity="1"></path><path fill="none" d="M 87 435.5 L 1895 435.5" stroke="#D8D8D8" stroke-width="1" opacity="1"></path><path fill="none" d="M 87 373.5 L 1895 373.5" stroke="#D8D8D8" stroke-width="1" opacity="1"></path><path fill="none" d="M 87 310.5 L 1895 310.5" stroke="#D8D8D8" stroke-width="1" opacity="1"></path><path fill="none" d="M 87 248.5 L 1895 248.5" stroke="#D8D8D8" stroke-width="1" opacity="1"></path><path fill="none" d="M 87 186.5 L 1895 186.5" stroke="#D8D8D8" stroke-width="1" opacity="1"></path><path fill="none" d="M 87 123.5 L 1895 123.5" stroke="#D8D8D8" stroke-width="1" opacity="1"></path><path fill="none" d="M 87 60.5 L 1895 60.5" stroke="#D8D8D8" stroke-width="1" opacity="1"></path></g><g class="highcharts-axis"><path fill="none" d="M 152.5 747 L 152.5 757" stroke="#C0D0E0" stroke-width="1" opacity="1"></path><path fill="none" d="M 220.5 747 L 220.5 757" stroke="#C0D0E0" stroke-width="1" opacity="1"></path><path fill="none" d="M 288.5 747 L 288.5 757" stroke="#C0D0E0" stroke-width="1" opacity="1"></path><path fill="none" d="M 356.5 747 L 356.5 757" stroke="#C0D0E0" stroke-width="1" opacity="1"></path><path fill="none" d="M 424.5 747 L 424.5 757" stroke="#C0D0E0" stroke-width="1" opacity="1"></path><path fill="none" d="M 492.5 747 L 492.5 757" stroke="#C0D0E0" stroke-width="1" opacity="1"></path><path fill="none" d="M 561.5 747 L 561.5 757" stroke="#C0D0E0" stroke-width="1" opacity="1"></path><path fill="none" d="M 629.5 747 L 629.5 757" stroke="#C0D0E0" stroke-width="1" opacity="1"></path><path fill="none" d="M 697.5 747 L 697.5 757" stroke="#C0D0E0" stroke-width="1" opacity="1"></path><path fill="none" d="M 765.5 747 L 765.5 757" stroke="#C0D0E0" stroke-width="1" opacity="1"></path><path fill="none" d="M 833.5 747 L 833.5 757" stroke="#C0D0E0" stroke-width="1" opacity="1"></path><path fill="none" d="M 902.5 747 L 902.5 757" stroke="#C0D0E0" stroke-width="1" opacity="1"></path><path fill="none" d="M 970.5 747 L 970.5 757" stroke="#C0D0E0" stroke-width="1" opacity="1"></path><path fill="none" d="M 1038.5 747 L 1038.5 757" stroke="#C0D0E0" stroke-width="1" opacity="1"></path><path fill="none" d="M 1106.5 747 L 1106.5 757" stroke="#C0D0E0" stroke-width="1" opacity="1"></path><path fill="none" d="M 1174.5 747 L 1174.5 757" stroke="#C0D0E0" stroke-width="1" opacity="1"></path><path fill="none" d="M 1242.5 747 L 1242.5 757" stroke="#C0D0E0" stroke-width="1" opacity="1"></path><path fill="none" d="M 1311.5 747 L 1311.5 757" stroke="#C0D0E0" stroke-width="1" opacity="1"></path><path fill="none" d="M 1379.5 747 L 1379.5 757" stroke="#C0D0E0" stroke-width="1" opacity="1"></path><path fill="none" d="M 1447.5 747 L 1447.5 757" stroke="#C0D0E0" stroke-width="1" opacity="1"></path><path fill="none" d="M 1515.5 747 L 1515.5 757" stroke="#C0D0E0" stroke-width="1" opacity="1"></path><path fill="none" d="M 1583.5 747 L 1583.5 757" stroke="#C0D0E0" stroke-width="1" opacity="1"></path><path fill="none" d="M 1651.5 747 L 1651.5 757" stroke="#C0D0E0" stroke-width="1" opacity="1"></path><path fill="none" d="M 1720.5 747 L 1720.5 757" stroke="#C0D0E0" stroke-width="1" opacity="1"></path><path fill="none" d="M 1788.5 747 L 1788.5 757" stroke="#C0D0E0" stroke-width="1" opacity="1"></path><path fill="none" d="M 1856.5 747 L 1856.5 757" stroke="#C0D0E0" stroke-width="1" opacity="1"></path><path fill="none" d="M 87 747.5 L 1895 747.5" stroke="#C0D0E0" stroke-width="1"></path></g><g class="highcharts-axis"><text x="23.734375" text-anchor="middle" transform="translate(0,0) rotate(270 23.734375 404)" class=" highcharts-yaxis-title" style="color:#707070;fill:#707070;" y="404">USD</text></g><g class="highcharts-series-group"><g class="highcharts-series highcharts-series-0" transform="translate(87,61) scale(1 1)" clip-path="url(#highcharts-5)"><path fill="none" d="M 17.725490196078 648.8794720227272 L 22.595130359836 649.169600521591 L 27.464770523594 648.3074025909091 L 32.334410687352 648.3403188977272 L 37.20405085111 647.7518505579545 L 42.073691014867 647.991794259091 L 46.943331178625 649.204715146591 L 51.812971342383 649.0414364 L 56.682611506141 649.0532663363637 L 61.552251669899 648.9894452284091 L 66.421891833657 648.4061125340909 L 71.291531997414 648.0770861090909 L 76.161172161172 648.0227254534091 L 81.03081232493 647.281962775 L 85.900452488688 646.7620032284091 L 90.770092652446 646.6700227113637 L 95.639732816203 646.7736434011364 L 100.50937297996 646.6203952886364 L 105.37901314372 646.1055238352272 L 110.24865330748 645.1795738977273 L 115.11829347123 644.0494189102272 L 119.98793363499 644.4878191818182 L 124.85757379875 644.3729263761363 L 129.72721396251 643.8108596818182 L 134.59685412627 641.8099750284091 L 139.46649429002 640.7216212170455 L 144.33613445378 638.9910125454545 L 149.20577461754 638.9687091931818 L 154.0754147813 638.1878245909091 L 158.94505494505 637.3435728545454 L 163.81469510881 638.1088299090909 L 168.68433527257 634.8425096204545 L 173.55397543633 632.3272049818182 L 178.42361560009 631.0300014772728 L 183.29325576384 629.2182033693182 L 188.1628959276 632.3523522272727 L 193.03253609136 630.7483123375 L 197.90217625512 630.6112218636364 L 202.77181641888 632.2697691306819 L 207.64145658263 631.7738211431819 L 212.51109674639 629.6393294147728 L 217.38073691015 626.7831426897727 L 222.25037707391 624.8362247988637 L 227.12001723766 621.9865402625 L 231.98965740142 622.1853344875 L 236.85929756518 620.8093478920455 L 241.72893772894 614.6650337625 L 246.5985778927 611.8124104696969 L 251.46821805645 611.5625676363636 L 256.33785822021 617.0265398181818 L 261.20749838397 623.1981667147727 L 266.07713854773 617.6188714181818 L 270.94677871148 615.0323427181818 L 275.81641887524 616.1775061272727 L 280.686059039 614.720424309091 L 285.55569920276 611.1872512454545 L 290.42533936652 609.7248319909091 L 295.29497953027 607.2420500586172 L 300.16461969403 607.5411465454546 L 305.03425985779 601.8616693011363 L 309.90390002155 596.0930365503145 L 314.7735401853 602.9029221965909 L 319.64318034906 598.909207153409 L 324.51282051282 597.8336803727273 L 329.38246067658 597.2761009090909 L 334.25210084034 593.6447675375 L 339.12174100409 603.1288594147727 L 343.99138116785 600.3065923272727 L 348.86102133161 609.6967949147727 L 353.73066149537 609.8390249318181 L 358.60030165913 609.1380712454545 L 363.46994182288 602.871549 L 368.33958198664 607.8150442285918 L 373.2092221504 604.3906254511363 L 378.07886231416 600.0947691136364 L 382.94850247791 602.7120150227273 L 387.81814264167 600.9582010647728 L 392.68778280543 601.4844169090909 L 397.55742296919 605.2651312352273 L 402.42706313295 607.6598512727273 L 407.2967032967 610.0270261272727 L 412.16634346046 607.4872028909091 L 417.03598362422 605.3841117545454 L 421.90562378798 606.6605304613636 L 426.77526395173 608.742637125 L 431.64490411549 610.1010266511364 L 436.51454427925 608.0083063090909 L 441.38418444301 606.1363343636364 L 446.25382460677 604.9356968852272 L 451.12346477052 604.32897149723 L 455.99310493428 604.6164601590909 L 460.86274509804 608.3198166818182 L 465.7323852618 606.1081075238636 L 470.60202542555 606.9154585852273 L 475.47166558931 612.2185128181818 L 480.34130575307 612.1033899909091 L 485.21094591683 611.6080218181818 L 490.08058608059 612.5735716439394 L 494.95022624434 617.6822630151515 L 499.8198664081 621.7967735636364 L 504.68950657186 625.7812268272727 L 509.55914673562 618.1289221625 L 514.42878689938 613.6543698409091 L 519.29842706313 615.3804877181818 L 524.16806722689 595.6292157348485 L 529.03770739065 602.3642718784091 L 533.90734755441 598.4536199090909 L 538.77698771816 601.0124042893939 L 543.64662788192 600.1932170181818 L 548.51626804568 606.1434285984849 L 553.38590820944 608.2004722818182 L 558.2555483732 603.4422386363636 L 563.12518853695 599.2635138106061 L 567.99482870071 601.1071013181818 L 572.86446886447 600.3761174621212 L 577.73410902823 596.6194489393939 L 582.60374919198 601.4843925575758 L 587.47338935574 602.0075948833334 L 592.3430295195 598.874329380303 L 597.21266968326 596.3880980378788 L 602.08230984702 585.6533226621212 L 606.95195001077 584.579186460606 L 611.82159017453 579.7564723787879 L 616.69123033829 578.1927821515152 L 621.56087050205 581.3124612166666 L 626.4305106658 579.2208508545455 L 631.30015082956 572.7318375757576 L 636.16979099332 565.8626000363636 L 641.03943115708 557.35791174 L 645.90907132084 552.4485221818181 L 650.77871148459 554.5053893909092 L 655.64835164835 550.0199302818182 L 660.51799181211 551.0224617439394 L 665.38763197587 557.2053688303031 L 670.25727213963 554.3297145909091 L 675.12691230338 556.3473085969697 L 679.99655246714 559.9093958181818 L 684.8661926309 558.7101747924243 L 689.73583279466 555.8174681818182 L 694.60547295841 550.6610332893939 L 699.47511312217 549.9520294227273 L 704.34475328593 550.031266580303 L 709.21439344969 550.2247492424242 L 714.08403361345 549.0596348893939 L 718.9536737772 542.3146355136364 L 723.82331394096 542.7199243136363 L 728.69295410472 537.9407759090909 L 733.56259426848 532.8430158439394 L 738.43223443223 543.1751903963636 L 743.30187459599 541.061920519697 L 748.17151475975 550.5431161257576 L 753.04115492351 546.0335447254545 L 757.91079508727 541.2595498439395 L 762.78043525102 540.8592849545455 L 767.65007541478 551.5829715560606 L 772.51971557854 549.5620986036364 L 777.3893557423 550.9841304545455 L 782.25899590605 553.536829480303 L 787.12863606981 554.4427673166666 L 791.99827623357 562.4803595939394 L 796.86791639733 582.487900909091 L 801.73755656109 568.3115461651515 L 806.60719672484 568.6432971163637 L 811.4768368886 569.1910137560606 L 816.34647705236 558.362943939394 L 821.21611721612 563.0372024242424 L 826.08575737988 561.9723953030303 L 830.95539754363 571.9089021015152 L 835.82503770739 572.57605685 L 840.69467787115 568.2453903 L 845.56431803491 570.5324597318181 L 850.43395819866 563.0639668181818 L 855.30359836242 564.0695061378788 L 860.17323852618 554.9566946106061 L 865.04287868994 554.974341440909 L 869.9125188537 555.2367172121212 L 874.78215901745 550.8153333984849 L 879.65179918121 550.0247293121212 L 884.52143934497 549.2089885227273 L 889.39107950873 552.1268942 L 894.26071967248 554.2513613636363 L 899.13035983624 550.7067058181818 L 904 550.496186969697 L 908.86964016376 549.5423871212122 L 913.73928032752 542.4925142742425 L 918.60892049127 537.0142762621213 L 923.47856065503 536.8798145454546 L 928.34820081879 535.7196710939394 L 933.21784098255 519.9527432378788 L 938.0874811463 512.5103952393939 L 942.95712131006 507.03386495151517 L 947.82676147382 509.90655439393936 L 952.69640163758 507.91421706666665 L 957.56604180134 511.26604196181813 L 962.43568196509 513.0601452454546 L 967.30532212885 507.40197359090905 L 972.17496229261 499.54957044363636 L 977.04460245637 498.27386478333335 L 981.91424262013 499.4334272136364 L 986.78388278388 502.77314597575753 L 991.65352294764 514.318279639394 L 996.5231631114 509.21086100606055 L 1001.3928032752 502.24122937121217 L 1006.2624434389 506.00279915606063 L 1011.1320836027 505.87208601363636 L 1016.0017237664 494.0623755581818 L 1020.8713639302 495.6077402309091 L 1025.7410040939 486.7904279848485 L 1030.6106442577 478.1636188742424 L 1035.4802844215 465.6062823363636 L 1040.3499245852 461.56200176545457 L 1045.219564749 454.083876580303 L 1050.0892049127 455.97134165757575 L 1054.9588450765 468.068038030303 L 1059.8284852403 464.8545780878788 L 1064.698125404 454.75943275 L 1069.5677655678 462.79938985636363 L 1074.4374057315 476.47695795 L 1079.3070458953 487.59473596060604 L 1084.176686059 507.75532335606056 L 1089.0463262228 481.7519960060606 L 1093.9159663866 479.0957697060606 L 1098.7856065503 458.3281397672728 L 1103.6552467141 442.3131336272727 L 1108.5248868778 443.1907874757576 L 1113.3945270416 442.24734986515153 L 1118.2641672053 436.30678683030305 L 1123.1338073691 428.57548108030306 L 1128.0034475329 434.6807818181818 L 1132.8730876966 428.1876359090909 L 1137.7427278604 431.9009227272727 L 1142.6123680241 428.7194937878788 L 1147.4820081879 414.48720977575755 L 1152.3516483516 396.50351605454546 L 1157.2212885154 382.9658907136363 L 1162.0909286792 375.66267952181823 L 1166.9605688429 377.94458015151514 L 1171.8302090067 369.5864912727273 L 1176.6998491704 346.6198349090909 L 1181.5694893342 340.7746056060606 L 1186.439129498 332.6282412727273 L 1191.3087696617 324.7639372727273 L 1196.1784098255 315.60885151515146 L 1201.0480499892 263.76762363636357 L 1205.917690153 171.43851984848482 L 1210.7873303167 186.85902030303032 L 1215.6569704805 213.81889871106335 L 1220.5266106443 222.33244409090906 L 1225.396250808 163.3267257575758 L 1230.2658909718 147.29064424242426 L 1235.1355311355 161.88456666666673 L 1240.0051712993 165.92182218181813 L 1244.874811463 131.83984545454553 L 1249.7444516268 77.99560151515152 L 1254.6140917906 84.5094313636364 L 1259.4837319543 94.73483303030298 L 1264.3533721181 132.92460893939392 L 1269.2230122818 186.2717107575757 L 1274.0926524456 185.6094609090909 L 1278.9622926094 212.318715 L 1283.8319327731 207.03911348484849 L 1288.7015729369 251.03936136363632 L 1293.5712131006 245.7430256060606 L 1298.4408532644 187.12058378787884 L 1303.3104934281 199.89660621212124 L 1308.1801335919 237.5873171212121 L 1313.0497737557 229.49381636363637 L 1317.9194139194 273.9143743636364 L 1322.7890540832 244.29161590909092 L 1327.6586942469 255.31090666666665 L 1332.5283344107 218.09010575757577 L 1337.3979745744 216.6119316666667 L 1342.2676147382 212.05647590909086 L 1347.137254902 150.47971272727273 L 1352.0068950657 145.9559169090909 L 1356.8765352295 166.776838030303 L 1361.7461753932 209.98127393939393 L 1366.615815557 227.18282787878786 L 1371.4854557207 214.33139742424243 L 1376.3550958845 271.3817870909091 L 1381.2247360483 252.17104309090905 L 1386.094376212 233.87070424242427 L 1390.9640163758 254.0407672727273 L 1395.8336565395 249.074252 L 1400.7032967033 337.3561428787879 L 1405.5729368671 339.35339030303027 L 1410.4425770308 332.2290724242425 L 1415.3122171946 329.8275527272727 L 1420.1818573583 282.17071696969697 L 1425.0514975221 327.2460723636364 L 1429.9211376858 357.2004078787879 L 1434.7907778496 336.0444589090909 L 1439.6604180134 334.198671969697 L 1444.5300581771 336.3133709090909 L 1449.3996983409 343.94122318181815 L 1454.2693385046 326.6365093939394 L 1459.1389786684 319.12377000000004 L 1464.0086188321 336.3690304545455 L 1468.8782589959 368.44244075757575 L 1473.7478991597 370.2836751515151 L 1478.6175393234 402.7674901515152 L 1483.4871794872 408.42252075757574 L 1488.3568196509 402.9726665151515 L 1493.2264598147 424.0525110606061 L 1498.0960999785 472.7532621212121 L 1502.9657401422 446.3479787878788 L 1507.835380306 433.428571969697 L 1512.7050204697 429.0450839393939 L 1517.5746606335 419.84707121212114 L 1522.4443007972 426.5711216180807 L 1527.313940961 425.8359031818182 L 1532.1835811248 411.24629424242426 L 1537.0532212885 417.90597704545456 L 1541.9228614523 394.92916060606063 L 1546.792501616 374.89419799999996 L 1551.6621417798 370.2166862121212 L 1556.5317819435 347.9269871212121 L 1561.4014221073 358.488061060606 L 1566.2710622711 339.5399095454546 L 1571.1407024348 330.82687803030296 L 1576.0103425986 357.5684053030303 L 1580.8799827623 376.3311289393939 L 1585.7496229261 369.12672575757574 L 1590.6192630899 383.6000992727273 L 1595.4889032536 383.6425896969697 L 1600.3585434174 363.3117324242424 L 1605.2281835811 350.36254696969695 L 1610.0978237449 362.63940045454547 L 1614.9674639086 342.7074625757575 L 1619.8371040724 341.2595868181818 L 1624.7067442362 332.8051565151515 L 1629.5763843999 329.5861534848485 L 1634.4460245637 324.42997999999994 L 1639.3156647274 350.3839065151515 L 1644.1853048912 370.5005550909091 L 1649.0549450549 391.9831543939394 L 1653.9245852187 402.5797756060606 L 1658.7942253825 413.2837558181818 L 1663.6638655462 381.621903939394 L 1668.53350571 399.6622487878788 L 1673.4031458737 400.5398090909091 L 1678.2727860375 431.8204216666667 L 1683.1424262012 425.37856984848486 L 1688.012066365 420.0065558181818 L 1692.8817065288 436.7426906573553 L 1697.7513466925 431.2004231818182 L 1702.6209868563 423.6975060606061 L 1707.49062702 405.77061106060603 L 1712.3602671838 406.9927824242424 L 1717.2299073476 415.01726742424245 L 1722.0995475113 415.1289503030303 L 1726.9691876751 415.89129378787874 L 1731.8388278388 417.2970221212121 L 1736.7084680026 430.38553833333333 L 1741.5781081663 440.4059195454546 L 1746.4477483301 437.78087818181814 L 1751.3173884939 462.35526909090913 L 1756.1870286576 471.39014893939395 L 1761.0566688214 469.7391236363636 L 1765.9263089851 474.1474531818182 L 1770.7959491489 466.6094565151516 L 1775.6655893126 454.9291631818181 L 1780.5352294764 474.34524984848485 L 1785.4048696402 473.1370063636364 L 1790.2745098039 480.07911848484844" stroke="#039bd3" stroke-width="2" stroke-linejoin="round" stroke-linecap="round"></path></g><g class="highcharts-markers highcharts-series-0" transform="translate(87,61) scale(1 1)" clip-path="none"></g></g><text x="960" text-anchor="middle" class="highcharts-title" style="color:#333333;font-size:18px;fill:#333333;width:1856px;" y="24"><tspan>Market Price (USD)</tspan></text><text x="960" text-anchor="middle" class="highcharts-subtitle" style="color:#555555;fill:#555555;width:1856px;" y="45"><tspan>source: blockchain.info</tspan></text><g class="highcharts-legend"><g><g></g></g></g><g class="highcharts-axis-labels highcharts-xaxis-labels"><text x="152.6102851396969" style="color:#606060;cursor:default;font-size:11px;fill:#606060;width:65px;text-overflow:clip;" text-anchor="middle" transform="translate(0,0)" y="766" opacity="1"><tspan>17. Apr</tspan></text><text x="220.78524743230625" style="color:#606060;cursor:default;font-size:11px;fill:#606060;width:65px;text-overflow:clip;" text-anchor="middle" transform="translate(0,0)" y="766" opacity="1"><tspan>1. May</tspan></text><text x="288.9602097249156" style="color:#606060;cursor:default;font-size:11px;fill:#606060;width:65px;text-overflow:clip;" text-anchor="middle" transform="translate(0,0)" y="766" opacity="1"><tspan>15. May</tspan></text><text x="357.13517201752495" style="color:#606060;cursor:default;font-size:11px;fill:#606060;width:65px;text-overflow:clip;" text-anchor="middle" transform="translate(0,0)" y="766" opacity="1"><tspan>29. May</tspan></text><text x="425.31013431013434" style="color:#606060;cursor:default;font-size:11px;fill:#606060;width:65px;text-overflow:clip;" text-anchor="middle" transform="translate(0,0)" y="766" opacity="1"><tspan>12. Jun</tspan></text><text x="493.4850966027437" style="color:#606060;cursor:default;font-size:11px;fill:#606060;width:65px;text-overflow:clip;" text-anchor="middle" transform="translate(0,0)" y="766" opacity="1"><tspan>26. Jun</tspan></text><text x="561.660058895353" style="color:#606060;cursor:default;font-size:11px;fill:#606060;width:65px;text-overflow:clip;" text-anchor="middle" transform="translate(0,0)" y="766" opacity="1"><tspan>10. Jul</tspan></text><text x="629.8350211879624" style="color:#606060;cursor:default;font-size:11px;fill:#606060;width:65px;text-overflow:clip;" text-anchor="middle" transform="translate(0,0)" y="766" opacity="1"><tspan>24. Jul</tspan></text><text x="698.0099834805717" style="color:#606060;cursor:default;font-size:11px;fill:#606060;width:65px;text-overflow:clip;" text-anchor="middle" transform="translate(0,0)" y="766" opacity="1"><tspan>7. Aug</tspan></text><text x="766.1849457731811" style="color:#606060;cursor:default;font-size:11px;fill:#606060;width:65px;text-overflow:clip;" text-anchor="middle" transform="translate(0,0)" y="766" opacity="1"><tspan>21. Aug</tspan></text><text x="834.3599080657905" style="color:#606060;cursor:default;font-size:11px;fill:#606060;width:65px;text-overflow:clip;" text-anchor="middle" transform="translate(0,0)" y="766" opacity="1"><tspan>4. Sep</tspan></text><text x="902.5348703583998" style="color:#606060;cursor:default;font-size:11px;fill:#606060;width:65px;text-overflow:clip;" text-anchor="middle" transform="translate(0,0)" y="766" opacity="1"><tspan>18. Sep</tspan></text><text x="970.7098326510092" style="color:#606060;cursor:default;font-size:11px;fill:#606060;width:65px;text-overflow:clip;" text-anchor="middle" transform="translate(0,0)" y="766" opacity="1"><tspan>2. Oct</tspan></text><text x="1038.8847949436185" style="color:#606060;cursor:default;font-size:11px;fill:#606060;width:65px;text-overflow:clip;" text-anchor="middle" transform="translate(0,0)" y="766" opacity="1"><tspan>16. Oct</tspan></text><text x="1107.0597572362278" style="color:#606060;cursor:default;font-size:11px;fill:#606060;width:65px;text-overflow:clip;" text-anchor="middle" transform="translate(0,0)" y="766" opacity="1"><tspan>30. Oct</tspan></text><text x="1175.234719528837" style="color:#606060;cursor:default;font-size:11px;fill:#606060;width:65px;text-overflow:clip;" text-anchor="middle" transform="translate(0,0)" y="766" opacity="1"><tspan>13. Nov</tspan></text><text x="1243.4096818214466" style="color:#606060;cursor:default;font-size:11px;fill:#606060;width:65px;text-overflow:clip;" text-anchor="middle" transform="translate(0,0)" y="766" opacity="1"><tspan>27. Nov</tspan></text><text x="1311.584644114056" style="color:#606060;cursor:default;font-size:11px;fill:#606060;width:65px;text-overflow:clip;" text-anchor="middle" transform="translate(0,0)" y="766" opacity="1"><tspan>11. Dec</tspan></text><text x="1379.7596064066652" style="color:#606060;cursor:default;font-size:11px;fill:#606060;width:65px;text-overflow:clip;" text-anchor="middle" transform="translate(0,0)" y="766" opacity="1"><tspan>25. Dec</tspan></text><text x="1447.9345686992747" style="color:#606060;cursor:default;font-size:11px;fill:#606060;width:65px;text-overflow:clip;" text-anchor="middle" transform="translate(0,0)" y="766" opacity="1"><tspan>8. Jan</tspan></text><text x="1516.109530991884" style="color:#606060;cursor:default;font-size:11px;fill:#606060;width:65px;text-overflow:clip;" text-anchor="middle" transform="translate(0,0)" y="766" opacity="1"><tspan>22. Jan</tspan></text><text x="1584.2844932844932" style="color:#606060;cursor:default;font-size:11px;fill:#606060;width:65px;text-overflow:clip;" text-anchor="middle" transform="translate(0,0)" y="766" opacity="1"><tspan>5. Feb</tspan></text><text x="1652.4594555771027" style="color:#606060;cursor:default;font-size:11px;fill:#606060;width:65px;text-overflow:clip;" text-anchor="middle" transform="translate(0,0)" y="766" opacity="1"><tspan>19. Feb</tspan></text><text x="1720.634417869712" style="color:#606060;cursor:default;font-size:11px;fill:#606060;width:65px;text-overflow:clip;" text-anchor="middle" transform="translate(0,0)" y="766" opacity="1"><tspan>5. Mar</tspan></text><text x="1788.8093801623213" style="color:#606060;cursor:default;font-size:11px;fill:#606060;width:65px;text-overflow:clip;" text-anchor="middle" transform="translate(0,0)" y="766" opacity="1"><tspan>19. Mar</tspan></text><text x="1856.9843424549308" style="color:#606060;cursor:default;font-size:11px;fill:#606060;width:65px;text-overflow:clip;" text-anchor="middle" transform="translate(0,0)" y="766" opacity="1"><tspan>2. Apr</tspan></text></g><g class="highcharts-axis-labels highcharts-yaxis-labels"><text x="0" style="color:#606060;cursor:default;font-size:11px;fill:#606060;width:624px;text-overflow:clip;" text-anchor="end" transform="translate(0,0)" y="-9999">0.0000</text><text x="72" style="color:#606060;cursor:default;font-size:11px;fill:#606060;width:624px;text-overflow:clip;" text-anchor="end" transform="translate(0,0)" y="689" opacity="1">2,000</text><text x="72" style="color:#606060;cursor:default;font-size:11px;fill:#606060;width:624px;text-overflow:clip;" text-anchor="end" transform="translate(0,0)" y="627" opacity="1">4,000</text><text x="72" style="color:#606060;cursor:default;font-size:11px;fill:#606060;width:624px;text-overflow:clip;" text-anchor="end" transform="translate(0,0)" y="564" opacity="1">6,000</text><text x="72" style="color:#606060;cursor:default;font-size:11px;fill:#606060;width:624px;text-overflow:clip;" text-anchor="end" transform="translate(0,0)" y="502" opacity="1">8,000</text><text x="72" style="color:#606060;cursor:default;font-size:11px;fill:#606060;width:624px;text-overflow:clip;" text-anchor="end" transform="translate(0,0)" y="440" opacity="1">10,000</text><text x="72" style="color:#606060;cursor:default;font-size:11px;fill:#606060;width:624px;text-overflow:clip;" text-anchor="end" transform="translate(0,0)" y="377" opacity="1">12,000</text><text x="72" style="color:#606060;cursor:default;font-size:11px;fill:#606060;width:624px;text-overflow:clip;" text-anchor="end" transform="translate(0,0)" y="315" opacity="1">14,000</text><text x="72" style="color:#606060;cursor:default;font-size:11px;fill:#606060;width:624px;text-overflow:clip;" text-anchor="end" transform="translate(0,0)" y="253" opacity="1">16,000</text><text x="72" style="color:#606060;cursor:default;font-size:11px;fill:#606060;width:624px;text-overflow:clip;" text-anchor="end" transform="translate(0,0)" y="190" opacity="1">18,000</text><text x="72" style="color:#606060;cursor:default;font-size:11px;fill:#606060;width:624px;text-overflow:clip;" text-anchor="end" transform="translate(0,0)" y="128" opacity="1">20,000</text><text x="72" style="color:#606060;cursor:default;font-size:11px;fill:#606060;width:624px;text-overflow:clip;" text-anchor="end" transform="translate(0,0)" y="66" opacity="1">22,000</text></g><g class="highcharts-tooltip" style="cursor:default;padding:0;pointer-events:none;white-space:nowrap;" transform="translate(0,-9999)"><path fill="none" d="M 3.5 0.5 L 13.5 0.5 C 16.5 0.5 16.5 0.5 16.5 3.5 L 16.5 13.5 C 16.5 16.5 16.5 16.5 13.5 16.5 L 3.5 16.5 C 0.5 16.5 0.5 16.5 0.5 13.5 L 0.5 3.5 C 0.5 0.5 0.5 0.5 3.5 0.5"  stroke="black" stroke-opacity="0.049999999999999996" stroke-width="5" transform="translate(1, 1)"></path><path fill="none" d="M 3.5 0.5 L 13.5 0.5 C 16.5 0.5 16.5 0.5 16.5 3.5 L 16.5 13.5 C 16.5 16.5 16.5 16.5 13.5 16.5 L 3.5 16.5 C 0.5 16.5 0.5 16.5 0.5 13.5 L 0.5 3.5 C 0.5 0.5 0.5 0.5 3.5 0.5"  stroke="black" stroke-opacity="0.09999999999999999" stroke-width="3" transform="translate(1, 1)"></path><path fill="none" d="M 3.5 0.5 L 13.5 0.5 C 16.5 0.5 16.5 0.5 16.5 3.5 L 16.5 13.5 C 16.5 16.5 16.5 16.5 13.5 16.5 L 3.5 16.5 C 0.5 16.5 0.5 16.5 0.5 13.5 L 0.5 3.5 C 0.5 0.5 0.5 0.5 3.5 0.5"  stroke="black" stroke-opacity="0.15" stroke-width="1" transform="translate(1, 1)"></path><path fill="rgb(249, 249, 249)" fill-opacity=" .85" d="M 3.5 0.5 L 13.5 0.5 C 16.5 0.5 16.5 0.5 16.5 3.5 L 16.5 13.5 C 16.5 16.5 16.5 16.5 13.5 16.5 L 3.5 16.5 C 0.5 16.5 0.5 16.5 0.5 13.5 L 0.5 3.5 C 0.5 0.5 0.5 0.5 3.5 0.5"></path><text x="8" style="font-size:12px;color:#333333;fill:#333333;" y="20"></text></g></svg>